<svg width="128" height="128" viewBox="0 0 128 128" fill="none" xmlns="http://www.w3.org/2000/svg">
<rect width="128" height="128" fill="white"/>
<path d="M111.342 48.5422C109.288 61.4368 102.734 73.1832 92.8457 81.6921C82.9575 90.201 70.3765 94.9205 57.3407 95.0109C54.7002 95.1126 52.0562 94.9517 49.4474 94.5312C43.9915 93.6027 39.0184 90.8288 35.3574 86.6723C31.6965 82.5159 29.569 77.2279 29.3299 71.6905C29.3826 65.5143 31.8578 59.6065 36.2215 55.242C40.5849 50.8778 46.4868 48.4073 52.6533 48.3636C58.8198 48.32 64.756 50.7068 69.1806 55.0088C73.6054 59.311 76.1638 65.1831 76.3037 71.3579C76.4024 75.2579 74.7156 78.6787 71.249 78.7775C67.5451 78.7775 66 74 66 74L62.745 80.7247C63.7429 82.0825 65.0602 83.1723 66.58 83.8971C68.0998 84.622 69.7748 84.9596 71.4563 84.8797C74.4534 84.6616 77.2466 83.2786 79.2395 81.0262C81.2325 78.7737 82.2673 75.8302 82.123 72.8241C82.1521 70.2444 81.8635 67.6711 81.2635 65.1622C79.7249 58.0749 75.6214 51.8087 69.744 47.5724C63.8666 43.336 56.6314 41.4288 49.4333 42.2185C42.2351 43.0082 35.5837 46.4388 30.7614 51.849C25.9387 57.2596 23.2865 64.2666 23.3158 71.5194C23.4083 79.21 26.4735 86.5654 31.8674 92.04C37.2607 97.5144 44.5631 100.682 52.2396 100.876C52.2396 100.876 54.4122 101.074 56.8616 101.018C68.7682 100.942 80.406 97.4646 90.4072 90.9934C90.5494 90.8943 90.6917 91.0923 90.5971 91.2366C85.728 96.49 79.7739 100.617 73.1495 103.33C66.5252 106.044 59.3898 107.278 52.2405 106.948C47.5666 107.033 42.924 106.168 38.5927 104.407C34.2615 102.646 30.3314 100.024 27.0395 96.7C23.7474 93.3757 21.1616 89.4181 19.4382 85.0657C17.7148 80.7134 16.8894 76.0565 17.0119 71.376C17.0141 65.7959 18.3158 60.2932 20.8135 55.3051C23.3111 50.3171 26.9359 45.9813 31.3998 42.6421C37.3988 38.2174 44.6484 35.8204 52.0985 35.7982H63.2334C67.583 35.795 71.8843 34.8846 75.8633 33.1249C79.8423 31.3653 83.4118 28.795 86.3445 25.5779C86.4064 25.509 86.4888 25.462 86.5795 25.4435C86.67 25.4239 86.7644 25.4332 86.8493 25.4703C86.9343 25.5074 87.0054 25.5704 87.0526 25.6502C87.1002 25.7303 87.1217 25.8232 87.1139 25.9164C86.642 30.9289 84.9759 35.7548 82.2556 39.9888C82.2152 40.0623 82.1971 40.146 82.2035 40.2296C82.2099 40.3133 82.2404 40.3933 82.2914 40.4598C82.3421 40.5263 82.4109 40.5766 82.4896 40.6046C82.5683 40.6327 82.6534 40.6373 82.7346 40.6179C87.8747 39.455 92.6704 37.0998 96.7358 33.7421C100.801 30.3843 104.023 26.1176 106.142 21.2854C106.196 21.199 106.27 21.1273 106.358 21.0765C106.447 21.0264 106.547 21 106.649 21C106.751 21 106.851 21.0264 106.94 21.0765C107.028 21.127 107.103 21.1987 107.156 21.2854C111.52 29.6582 112.992 39.243 111.342 48.5422Z" fill="#702AF7"/>
<path d="M52.0018 55C43.1608 54.9964 36 62.1382 36 70.9531C36 77.9237 40.4795 83.849 46.7179 86.0251C47.558 86.2355 47.4293 85.6398 47.4293 85.2331V82.4684C42.578 83.0357 42.3814 79.8322 42.0561 79.2971C41.3983 78.1769 39.8431 77.8916 40.3079 77.3565C41.4126 76.7893 42.5387 77.4992 43.8436 79.4219C44.7874 80.8168 46.6285 80.5813 47.5616 80.3495C47.7654 79.5111 48.2015 78.762 48.8021 78.1805C43.7757 77.2815 41.6807 74.2208 41.6807 70.5821C41.6807 68.8163 42.2634 67.1931 43.4074 65.8839C42.6781 63.7257 43.4754 61.8778 43.5826 61.6031C45.6597 61.4176 47.819 63.0871 47.987 63.2191C49.1668 62.9016 50.5146 62.734 52.0232 62.734C53.539 62.734 54.8904 62.9088 56.0809 63.2298C56.4849 62.923 58.4869 61.489 60.4174 61.6638C60.5211 61.9385 61.3004 63.7435 60.614 65.8732C61.7723 67.186 62.3622 68.8234 62.3622 70.5928C62.3622 74.2386 60.2529 77.303 55.2122 78.1876C55.6439 78.6113 55.9867 79.1166 56.2206 79.674C56.4545 80.2314 56.5747 80.8297 56.5742 81.4339V85.4472C56.6028 85.7682 56.5742 86.0857 57.1105 86.0857C63.4419 83.956 68 77.9879 68 70.9567C68 62.1382 60.8357 55 52.0018 55Z" fill="white"/>
</svg>
