<?xml version="1.0" standalone="no"?>
<!DOCTYPE svg PUBLIC "-//W3C//DTD SVG 20010904//EN"
 "http://www.w3.org/TR/2001/REC-SVG-20010904/DTD/svg10.dtd">
<svg version="1.0" xmlns="http://www.w3.org/2000/svg"
 width="700.000000pt" height="700.000000pt" viewBox="0 0 700.000000 700.000000"
 preserveAspectRatio="xMidYMid meet">
<metadata>
Created by potrace 1.14, written by Peter Selinger 2001-2017
</metadata>
<g transform="translate(0.000000,700.000000) scale(0.100000,-0.100000)"
fill="#000000" stroke="none">
<path d="M6444 6502 c-6 -4 -36 -58 -68 -120 -301 -602 -819 -1032 -1463
-1216 -116 -33 -153 -34 -153 -4 0 6 22 47 48 92 110 185 224 475 256 653 60
332 54 344 -103 192 -198 -193 -436 -352 -676 -454 -142 -61 -412 -135 -540
-150 -27 -3 -66 -8 -85 -11 -19 -4 -255 -8 -525 -10 -465 -3 -699 -8 -755 -18
-14 -3 -43 -7 -66 -10 -279 -35 -637 -165 -907 -328 -202 -123 -469 -353 -602
-520 -27 -35 -52 -65 -55 -68 -21 -19 -150 -211 -198 -294 -48 -85 -141 -285
-176 -379 -33 -89 -96 -314 -111 -392 -33 -180 -40 -273 -40 -520 0 -196 8
-343 20 -378 2 -7 6 -30 9 -52 10 -89 66 -308 103 -405 3 -8 7 -20 8 -25 2 -6
22 -55 45 -110 79 -186 207 -405 319 -545 28 -36 60 -75 70 -87 73 -93 254
-263 386 -362 268 -203 648 -378 925 -427 14 -3 41 -9 60 -14 19 -4 57 -11 83
-15 27 -3 57 -8 67 -10 131 -25 804 -25 900 0 8 2 42 6 75 10 33 4 96 13 140
22 44 8 91 17 105 19 106 19 452 124 555 169 17 7 55 23 85 35 75 30 375 185
407 210 14 11 29 20 33 20 16 0 248 164 361 256 64 51 173 149 243 216 175
169 172 176 -25 58 -160 -96 -451 -241 -609 -303 -128 -51 -151 -59 -165 -62
-5 -2 -35 -12 -65 -23 -44 -16 -164 -54 -215 -69 -22 -6 -211 -54 -230 -58
-106 -23 -241 -47 -340 -60 -66 -9 -136 -18 -155 -21 -183 -26 -736 -25 -945
1 -89 12 -188 30 -268 51 -148 38 -393 140 -526 219 -202 120 -444 329 -556
480 -17 22 -36 46 -44 54 -7 8 -40 55 -72 103 -178 270 -297 590 -336 908 -15
122 -7 529 11 559 2 3 7 24 10 46 21 134 86 340 150 478 20 43 36 80 36 83 0
14 134 225 193 304 119 160 316 347 482 461 234 160 563 293 800 325 28 3 52
8 55 9 14 9 199 19 321 18 309 -2 621 -80 899 -225 104 -54 260 -150 292 -181
7 -7 31 -25 53 -42 49 -36 195 -182 252 -252 109 -132 231 -345 303 -528 32
-80 95 -289 105 -347 3 -17 8 -34 10 -38 2 -3 7 -29 10 -56 4 -27 8 -56 10
-64 9 -33 18 -183 19 -330 3 -276 -53 -547 -144 -696 -49 -81 -146 -280 -156
-319 -4 -16 -9 -34 -13 -40 -20 -34 -24 -130 -7 -161 52 -96 114 -120 266
-102 8 1 64 27 125 58 137 69 267 159 485 333 33 26 195 161 200 167 3 3 39
34 80 70 74 64 272 259 341 335 139 156 358 459 458 635 71 124 193 380 241
503 28 73 55 141 60 152 43 93 139 482 175 705 51 323 52 728 1 975 -2 11 -7
40 -11 65 -6 36 -44 203 -58 255 -66 237 -205 573 -247 595 -22 12 -22 12 -36
2z"/>
<path d="M2568 4645 c-1 -1 -34 -5 -73 -9 -176 -16 -353 -68 -540 -161 -386
-192 -684 -530 -819 -928 -35 -102 -55 -170 -62 -217 -3 -14 -6 -30 -9 -37
-18 -53 -27 -386 -13 -509 32 -282 166 -601 345 -824 165 -205 361 -359 605
-475 110 -52 170 -68 196 -51 9 5 12 56 12 184 l0 177 -87 -2 c-240 -5 -380
84 -443 282 -20 61 -57 107 -131 160 -94 66 -99 86 -29 105 84 23 163 -23 268
-155 130 -163 155 -179 297 -181 95 -2 145 9 145 32 0 26 49 121 85 164 19 23
35 44 35 48 0 3 -3 3 -6 0 -3 -4 -45 4 -92 17 -400 108 -621 367 -626 735 -1
130 9 205 39 285 31 84 57 134 98 187 l35 45 -14 59 c-19 81 -16 223 8 309 11
38 24 73 30 76 41 25 236 -34 361 -109 l90 -54 51 11 c212 45 465 48 679 7 43
-8 82 -18 86 -21 5 -3 15 1 23 8 23 23 116 76 180 103 82 35 142 49 203 49
l50 0 21 -75 c25 -87 30 -242 10 -311 -13 -43 -13 -43 35 -113 92 -137 132
-279 128 -451 -5 -185 -50 -319 -151 -452 -102 -134 -284 -243 -479 -288 -41
-9 -80 -19 -87 -21 -9 -3 -5 -12 12 -31 14 -15 39 -52 55 -83 53 -99 60 -148
61 -422 0 -140 5 -258 10 -269 17 -31 93 -9 255 73 307 155 565 413 718 718
58 118 69 141 95 215 17 46 50 166 58 205 23 122 29 195 29 335 0 220 -21 355
-84 544 -42 126 -147 338 -198 401 -6 8 -34 44 -60 80 -26 36 -93 110 -149
165 -240 238 -538 391 -874 451 -80 14 -371 29 -382 19z"/>
</g>
</svg>
